<svg xmlns="http://www.w3.org/2000/svg" xmlns:xlink="http://www.w3.org/1999/xlink">
<symbol id="icon-menu" viewBox="0 0 32 32">
    <path d="M28 25.333h-24c-0.736 0-1.333-0.597-1.333-1.333s0.597-1.333 1.333-1.333v0h24c0.736 0 1.333 0.597 1.333 1.333s-0.597 1.333-1.333 1.333v0z"></path>
    <path d="M28 17.333h-24c-0.736 0-1.333-0.597-1.333-1.333s0.597-1.333 1.333-1.333v0h24c0.736 0 1.333 0.597 1.333 1.333s-0.597 1.333-1.333 1.333v0z"></path>
    <path d="M28 9.333h-24c-0.736 0-1.333-0.597-1.333-1.333s0.597-1.333 1.333-1.333v0h24c0.736 0 1.333 0.597 1.333 1.333s-0.597 1.333-1.333 1.333v0z"></path>
</symbol> 
<symbol id="icon-close" viewBox="0 0 32 32">
    <path d="M27.661 4.438c-0.521-0.521-1.365-0.521-1.886 0l-9.726 9.726-9.726-9.726c-0.521-0.521-1.365-0.521-1.886 0s-0.521 1.365 0 1.886l9.726 9.726-9.726 9.726c-0.521 0.521-0.521 1.365 0 1.886s1.365 0.521 1.886 0l9.726-9.726 9.726 9.726c0.521 0.521 1.365 0.521 1.886 0s0.521-1.365 0-1.886l-9.726-9.726 9.726-9.726c0.521-0.521 0.521-1.365 0-1.886z"></path>
</symbol>
<symbol id="icon-twitter" viewBox="0 0 32 32">
    <path d="M32 7.075c-1.175 0.525-2.444 0.875-3.769 1.031 1.356-0.813 2.394-2.1 2.887-3.631-1.269 0.75-2.675 1.3-4.169 1.594-1.2-1.275-2.906-2.069-4.794-2.069-3.625 0-6.563 2.938-6.563 6.563 0 0.512 0.056 1.012 0.169 1.494-5.456-0.275-10.294-2.888-13.531-6.862-0.563 0.969-0.887 2.1-0.887 3.3 0 2.275 1.156 4.287 2.919 5.463-1.075-0.031-2.087-0.331-2.975-0.819 0 0.025 0 0.056 0 0.081 0 3.181 2.263 5.838 5.269 6.437-0.55 0.15-1.131 0.231-1.731 0.231-0.425 0-0.831-0.044-1.237-0.119 0.838 2.606 3.263 4.506 6.131 4.563-2.25 1.762-5.075 2.813-8.156 2.813-0.531 0-1.050-0.031-1.569-0.094 2.913 1.869 6.362 2.95 10.069 2.95 12.075 0 18.681-10.006 18.681-18.681 0-0.287-0.006-0.569-0.019-0.85 1.281-0.919 2.394-2.075 3.275-3.394z"></path>
</symbol>
<symbol id="icon-instagram" viewBox="0 0 32 32">
    <path d="M15.91 6c-9.191 0-9.91 0.72-9.91 9.91v0.18c0 9.191 0.719 9.91 9.91 9.91h0.18c9.191 0 9.91-0.72 9.91-9.91v-0.090c0-9.274-0.726-10-10-10h-0.090zM21.997 9c0.552-0.002 1.001 0.445 1.003 0.997s-0.445 1.001-0.997 1.003c-0.552 0.002-1.001-0.445-1.003-0.997s0.445-1.001 0.997-1.003zM15.988 11c2.761-0.007 5.005 2.227 5.012 4.988s-2.227 5.005-4.988 5.012c-2.761 0.006-5.005-2.227-5.012-4.988s2.227-5.005 4.988-5.012zM15.993 13c-1.657 0.004-2.997 1.351-2.993 3.008s1.35 2.996 3.007 2.992c1.657-0.004 2.997-1.35 2.993-3.007s-1.35-2.997-3.007-2.993z"></path>
</symbol>
</svg>